<svg width="500" height="500" viewBox="0 0 500 500" fill="none" xmlns="http://www.w3.org/2000/svg">
  <!-- Brain Outline and Circuits -->
  <path d="M350 140C320 120 280 125 250 145C220 125 180 120 150 140C100 170 90 240 120 290C135 315 170 340 210 355C230 380 250 420 250 450C250 420 270 380 290 355C330 340 365 315 380 290C410 240 400 170 350 140Z" stroke="#3B82F6" stroke-width="12" stroke-linecap="round" stroke-linejoin="round"/>
  
  <!-- Circuitry lines inspired by the provided image -->
  <path d="M180 180H220V220M280 180H320V220M150 250H200L220 280M350 250H300L280 280M250 180V250L220 280M250 350V300L280 280" stroke="#3B82F6" stroke-width="8" stroke-linecap="round" stroke-linejoin="round"/>
  
  <!-- Connectivity lines extending to the left -->
  <path d="M120 220H60M100 280H40M130 340H80" stroke="#3B82F6" stroke-width="8" stroke-linecap="round"/>

  <!-- Orange nodes (squares) -->
  <rect x="45" y="205" width="30" height="30" fill="#F59E0B" rx="4"/>
  <rect x="25" y="265" width="30" height="30" fill="#F59E0B" rx="4"/>
  <rect x="65" y="325" width="30" height="30" fill="#F59E0B" rx="4"/>
  
  <rect x="160" y="165" width="25" height="25" fill="#F59E0B" rx="4"/>
  <rect x="315" y="165" width="25" height="25" fill="#F59E0B" rx="4"/>
  <rect x="238" y="210" width="25" height="25" fill="#F59E0B" rx="4"/>
  <rect x="195" y="265" width="25" height="25" fill="#F59E0B" rx="4"/>
  <rect x="280" y="265" width="25" height="25" fill="#F59E0B" rx="4"/>
  <rect x="238" y="320" width="25" height="25" fill="#F59E0B" rx="4"/>
</svg>